<?xml version="1.0" encoding="utf-8"?>
<!-- Generator: Adobe Illustrator 27.2.0, SVG Export Plug-In . SVG Version: 6.00 Build 0)  -->
<svg version="1.1" id="Capa_1" xmlns="http://www.w3.org/2000/svg" xmlns:xlink="http://www.w3.org/1999/xlink" x="0px" y="0px"
	 viewBox="0 0 841.89 595.28" style="enable-background:new 0 0 841.89 595.28;" xml:space="preserve">
<style type="text/css">
	.st0{fill:#1964AB;}
	.st1{fill:#3489CA;}
	.st2{fill:#EF8812;}
	.st3{fill:#C41156;}
	.st4{fill:#529533;}
</style>
<g>
	<path class="st0" d="M240.02,391.83c-3.46,11.5-14.63,20.18-27.09,20.18c-13.83,0-23.07-10.69-21.22-24.11
		c1.93-13.42,14.15-24.12,27.97-24.12c12.46,0,21.22,8.6,21.46,20.18h-13.67c-0.88-4.74-4.58-8.12-9.49-8.12
		c-6.19,0-11.98,5.39-12.94,12.06s3.38,12.06,9.57,12.06c4.9,0,9.57-3.46,11.74-8.12H240.02z"/>
	<path class="st0" d="M294.77,387.89C292.92,401.31,280.62,412,266.8,412c-13.83,0-23.07-10.69-21.22-24.11
		c1.93-13.42,14.15-24.12,27.97-24.12C287.37,363.77,296.7,374.46,294.77,387.89z M281.43,387.89c0.96-6.67-3.38-12.06-9.57-12.06
		s-11.98,5.39-12.94,12.06s3.38,12.06,9.57,12.06S280.46,394.56,281.43,387.89z"/>
	<path class="st0" d="M324.27,364.58c0,0,18.41,0.16,16,17.36c-2.41,16.96-20.82,17.12-20.82,17.12h-6.03l-1.69,12.06h-12.94
		l6.51-46.54H324.27z M322.75,376.63h-6.19L315.11,387h6.19c2.65,0,4.9-1.45,5.47-5.06C327.25,378.16,325.4,376.63,322.75,376.63z"
		/>
	<path class="st0" d="M366.16,405.41h-16l-2.73,5.71h-13.91l23.63-46.54h13.67l10.61,46.54h-13.91L366.16,405.41z M356.35,393.35
		h7.23l-2.25-10.05L356.35,393.35z"/>
	<path class="st0" d="M419.78,396.89l4.58-32.31h12.94l-4.66,33.12c-1.04,7.56-9,14.31-19.21,14.31
		c-11.25,0-15.11-10.53-15.11-10.53l11.58-6.03c1.04,2.17,3.3,4.5,5.63,4.5C418.25,399.95,419.62,398.42,419.78,396.89z"/>
	<path class="st0" d="M440.44,392.95l4.02-28.38h12.94l-4.02,28.46c0,0-0.64,6.91,5.71,6.91s7.64-6.91,7.64-6.91l4.02-28.46h12.94
		l-4.02,28.38C477.01,412.24,457.4,412,457.4,412S437.78,412.24,440.44,392.95z"/>
	<path class="st0" d="M526.05,411.12h-11.9l-13.34-22.67l-3.13,22.67h-12.94l6.51-46.54h11.9l13.26,22.75l3.21-22.75h12.94
		L526.05,411.12z"/>
	<path class="st0" d="M540.6,364.58h12.94l-6.51,46.54h-12.94L540.6,364.58z"/>
	<path class="st0" d="M606.68,387.89c-1.85,13.42-14.15,24.11-27.97,24.11c-13.83,0-23.07-10.69-21.22-24.11
		c1.93-13.42,14.15-24.12,27.97-24.12S608.61,374.46,606.68,387.89z M593.33,387.89c0.96-6.67-3.38-12.06-9.57-12.06
		s-11.98,5.39-12.94,12.06s3.38,12.06,9.57,12.06S592.37,394.56,593.33,387.89z"/>
	<path class="st0" d="M636.18,364.58c0,0,18.41,0.16,16,17.36c-1.21,8.04-5.87,12.22-10.53,14.55l9.65,14.63h-15.35l-8.28-12.06
		h-2.33l-1.69,12.06H610.7l6.51-46.54H636.18z M634.66,376.63h-6.19L627.02,387h6.19c2.65,0,4.9-1.45,5.47-5.06
		C639.16,378.16,637.31,376.63,634.66,376.63z"/>
	<path class="st0" d="M190.54,425.19h6.46l-3.25,23.22h-6.46L190.54,425.19z"/>
	<path class="st0" d="M233.41,448.41h-5.93l-6.66-11.31l-1.56,11.31h-6.46l3.25-23.22h5.93l6.62,11.35l1.6-11.35h6.46L233.41,448.41
		z"/>
	<path class="st0" d="M253.86,431.21l0.84-6.01h19.69l-0.84,6.01h-6.62l-2.41,17.2h-6.46l2.41-17.2H253.86z"/>
	<path class="st0" d="M297.66,433.93h9.38l-0.84,6.02h-9.38l-0.32,2.45h10.19l-0.84,6.01H289.2l3.25-23.22h16.64l-0.84,6.01h-10.19
		L297.66,433.93z"/>
	<path class="st0" d="M337.12,425.19c0,0,9.18,0.08,7.98,8.66c-0.6,4.01-2.93,6.1-5.25,7.26l4.81,7.3H337l-4.13-6.01h-1.16
		l-0.84,6.01h-6.46l3.25-23.22H337.12z M336.36,431.21h-3.09l-0.72,5.17h3.09c1.32,0,2.45-0.72,2.73-2.53
		C338.61,431.97,337.68,431.21,336.36,431.21z"/>
	<path class="st0" d="M382.64,448.41h-5.93l-6.66-11.31l-1.56,11.31h-6.46l3.25-23.22h5.93l6.62,11.35l1.6-11.35h6.46L382.64,448.41
		z"/>
	<path class="st0" d="M416.45,445.56h-7.98l-1.36,2.85h-6.94l11.79-23.22h6.82l5.29,23.22h-6.94L416.45,445.56z M411.56,439.55h3.61
		l-1.12-5.01L411.56,439.55z"/>
	<path class="st0" d="M465.7,438.79c-1.72,5.73-7.3,10.07-13.51,10.07c-6.9,0-11.51-5.33-10.59-12.03
		c0.96-6.7,7.06-12.03,13.96-12.03c6.21,0,10.59,4.29,10.71,10.07h-6.82c-0.44-2.37-2.29-4.05-4.73-4.05
		c-3.09,0-5.97,2.69-6.46,6.01c-0.48,3.33,1.68,6.01,4.77,6.01c2.45,0,4.77-1.72,5.85-4.05H465.7z"/>
	<path class="st0" d="M485.56,425.19h6.46l-3.25,23.22h-6.46L485.56,425.19z"/>
	<path class="st0" d="M533.56,436.82c-0.92,6.7-7.06,12.03-13.96,12.03c-6.9,0-11.51-5.33-10.59-12.03
		c0.96-6.7,7.06-12.03,13.96-12.03C529.87,424.79,534.52,430.12,533.56,436.82z M526.9,436.82c0.48-3.33-1.68-6.01-4.77-6.01
		c-3.09,0-5.97,2.69-6.46,6.01c-0.48,3.33,1.68,6.01,4.77,6.01S526.42,440.15,526.9,436.82z"/>
	<path class="st0" d="M571.22,448.41h-5.93l-6.66-11.31l-1.56,11.31h-6.46l3.25-23.22h5.93l6.62,11.35l1.6-11.35h6.46L571.22,448.41
		z"/>
	<path class="st0" d="M605.03,445.56h-7.98l-1.36,2.85h-6.94l11.79-23.22h6.82l5.29,23.22h-6.94L605.03,445.56z M600.14,439.55h3.61
		l-1.12-5.01L600.14,439.55z"/>
	<path class="st0" d="M637.48,442.4h10.19l-0.84,6.01h-16.64l3.25-23.22h6.46L637.48,442.4z"/>
</g>
<path class="st1" d="M362.74,213.42c-12.6,20.12-36.91,23.85-52.5,19.17c-14.13-4.24-12.39-13.91-16.63-11.09
	c-4.38,2.92-0.11,13.48,7.07,20.87c16.49,16.99,73.98,20.01,99.33-2.15c-1.32-1.48-2.7-2.93-4.15-4.34
	C385.53,225.83,373.25,218.94,362.74,213.42z"/>
<path class="st0" d="M378.19,178.26c8.11-2.16,12.93-10.48,10.77-18.59c-2.16-8.11-10.48-12.93-18.59-10.77
	s-12.93,10.48-10.77,18.59C361.76,175.6,370.08,180.42,378.19,178.26z"/>
<path class="st0" d="M422.27,189.57c-25.66-10.33-49.71-9.07-64.57-6.85c-7.97,2.1-17.71,5.71-18.59,11.74
	c-0.98,6.72,9.77,11.66,23.63,18.95c10.5,5.53,22.79,12.41,33.11,22.47c1.45,1.41,2.83,2.86,4.15,4.34
	c36.6,41.01,23.94,105.62,30.09,105.56c4.93-0.05,16.24-41.05,2.94-82.83c-14.02-44.03-41.32-53.01-36.2-60.66
	c6.59-9.83,59.27,19.64,61.31,14.68C459.37,214,441.97,197.5,422.27,189.57z"/>
<g>
	<path class="st2" d="M461.29,305.88l-1.42-8.33l-7.82-1.12l-8.21,7.29l0.39,6.78l7.64,3.1
		C451.88,313.6,454.91,309.74,461.29,305.88z"/>
	<polygon class="st3" points="446.8,345.45 457.19,348.21 464.8,339.46 461.33,330.27 451.88,328.37 444.78,335.66 	"/>
	<polygon class="st4" points="473.87,303.02 467.82,308.51 469.83,317.18 478.07,321.74 483.43,315.22 481.76,305.94 	"/>
	<path class="st0" d="M472.81,338.45l6.35-8.11l6.08,0.53l-0.04,2.89c0,0-5.09,9.62-12.32,10.51L472.81,338.45z"/>
</g>
</svg>
